<mxfile host="app.diagrams.net" modified="2024-03-23T07:08:22.811Z" agent="Mozilla/5.0 (Windows NT 10.0; Win64; x64) AppleWebKit/537.36 (KHTML, like Gecko) Chrome/120.0.0.0 YaBrowser/24.1.0.0 Safari/537.36" etag="h_HnU3mIHQKz-VZOx5Rt" version="24.0.8" type="google">
  <diagram name="Page-1" id="13e1069c-82ec-6db2-03f1-153e76fe0fe0">
    <mxGraphModel grid="1" page="1" gridSize="10" guides="1" tooltips="1" connect="1" arrows="1" fold="1" pageScale="1" pageWidth="1100" pageHeight="850" background="none" math="0" shadow="0">
      <root>
        <mxCell id="0" />
        <mxCell id="1" parent="0" />
        <mxCell id="7baba1c4bc27f4b0-2" value=":GUI" style="shape=umlLifeline;perimeter=lifelinePerimeter;whiteSpace=wrap;html=1;container=1;collapsible=0;recursiveResize=0;outlineConnect=0;rounded=1;shadow=0;comic=0;labelBackgroundColor=none;strokeWidth=1;fontFamily=Verdana;fontSize=12;align=center;" vertex="1" parent="1">
          <mxGeometry x="240" y="80" width="100" height="1770" as="geometry" />
        </mxCell>
        <mxCell id="wwS38SLD4BhZDNM-s97V-25" value="" style="html=1;points=[];perimeter=orthogonalPerimeter;" vertex="1" parent="7baba1c4bc27f4b0-2">
          <mxGeometry x="45" y="60" width="10" height="1690" as="geometry" />
        </mxCell>
        <mxCell id="g-z1oCNefS3xPDmUXuDe-24" value="" style="endArrow=block;dashed=1;endFill=0;endSize=12;html=1;rounded=0;" edge="1" parent="7baba1c4bc27f4b0-2">
          <mxGeometry width="160" relative="1" as="geometry">
            <mxPoint x="120" y="352.83000000000004" as="sourcePoint" />
            <mxPoint x="50" y="352.83000000000004" as="targetPoint" />
          </mxGeometry>
        </mxCell>
        <mxCell id="7baba1c4bc27f4b0-4" value=":API-Gateway" style="shape=umlLifeline;perimeter=lifelinePerimeter;whiteSpace=wrap;html=1;container=1;collapsible=0;recursiveResize=0;outlineConnect=0;rounded=1;shadow=0;comic=0;labelBackgroundColor=none;strokeWidth=1;fontFamily=Verdana;fontSize=12;align=center;" vertex="1" parent="1">
          <mxGeometry x="381" y="80" width="100" height="1760" as="geometry" />
        </mxCell>
        <mxCell id="WZIY-89Z3sl6ZoVQuBjr-1" value="" style="html=1;points=[[0,0,0,0,5],[0,1,0,0,-5],[1,0,0,0,5],[1,1,0,0,-5]];perimeter=orthogonalPerimeter;outlineConnect=0;targetShapes=umlLifeline;portConstraint=eastwest;newEdgeStyle={&quot;curved&quot;:0,&quot;rounded&quot;:0};" vertex="1" parent="7baba1c4bc27f4b0-4">
          <mxGeometry x="45" y="871" width="10" height="130" as="geometry" />
        </mxCell>
        <mxCell id="g-z1oCNefS3xPDmUXuDe-4" value="" style="html=1;points=[];perimeter=orthogonalPerimeter;" vertex="1" parent="7baba1c4bc27f4b0-4">
          <mxGeometry x="55" y="922" width="10" height="40" as="geometry" />
        </mxCell>
        <mxCell id="g-z1oCNefS3xPDmUXuDe-5" value="Валидировать&lt;br&gt;данные запроса" style="edgeStyle=orthogonalEdgeStyle;html=1;align=left;spacingLeft=2;endArrow=block;rounded=0;entryX=1;entryY=0;exitX=1.4;exitY=0.125;exitDx=0;exitDy=0;exitPerimeter=0;" edge="1" parent="7baba1c4bc27f4b0-4" target="g-z1oCNefS3xPDmUXuDe-4">
          <mxGeometry relative="1" as="geometry">
            <mxPoint x="59" y="902" as="sourcePoint" />
            <Array as="points">
              <mxPoint x="79" y="902" />
              <mxPoint x="79" y="922" />
            </Array>
          </mxGeometry>
        </mxCell>
        <mxCell id="7baba1c4bc27f4b0-6" value=":DB change password manager" style="shape=umlLifeline;perimeter=lifelinePerimeter;whiteSpace=wrap;html=1;container=1;collapsible=0;recursiveResize=0;outlineConnect=0;rounded=1;shadow=0;comic=0;labelBackgroundColor=none;strokeWidth=1;fontFamily=Verdana;fontSize=12;align=center;" vertex="1" parent="1">
          <mxGeometry x="680" y="80" width="100" height="1760" as="geometry" />
        </mxCell>
        <mxCell id="wwS38SLD4BhZDNM-s97V-44" value="" style="html=1;points=[];perimeter=orthogonalPerimeter;" vertex="1" parent="7baba1c4bc27f4b0-6">
          <mxGeometry x="45" y="1141" width="10" height="80" as="geometry" />
        </mxCell>
        <mxCell id="wwS38SLD4BhZDNM-s97V-54" value="" style="html=1;points=[];perimeter=orthogonalPerimeter;" vertex="1" parent="7baba1c4bc27f4b0-6">
          <mxGeometry x="45" y="1311" width="10" height="80" as="geometry" />
        </mxCell>
        <mxCell id="7baba1c4bc27f4b0-7" value=":СУБД" style="shape=umlLifeline;perimeter=lifelinePerimeter;whiteSpace=wrap;html=1;container=1;collapsible=0;recursiveResize=0;outlineConnect=0;rounded=1;shadow=0;comic=0;labelBackgroundColor=none;strokeWidth=1;fontFamily=Verdana;fontSize=12;align=center;" vertex="1" parent="1">
          <mxGeometry x="820" y="80" width="100" height="1760" as="geometry" />
        </mxCell>
        <mxCell id="wwS38SLD4BhZDNM-s97V-50" value="" style="html=1;points=[];perimeter=orthogonalPerimeter;" vertex="1" parent="7baba1c4bc27f4b0-7">
          <mxGeometry x="45" y="1156" width="10" height="50" as="geometry" />
        </mxCell>
        <mxCell id="wwS38SLD4BhZDNM-s97V-57" value="" style="html=1;points=[];perimeter=orthogonalPerimeter;" vertex="1" parent="7baba1c4bc27f4b0-7">
          <mxGeometry x="45" y="1321" width="10" height="60" as="geometry" />
        </mxCell>
        <mxCell id="7baba1c4bc27f4b0-11" value="Нажать кнопку &lt;br&gt;&quot;Вход в систему&quot;" style="html=1;verticalAlign=bottom;endArrow=block;labelBackgroundColor=none;fontFamily=Verdana;fontSize=12;edgeStyle=elbowEdgeStyle;elbow=vertical;entryX=-0.374;entryY=0.025;entryDx=0;entryDy=0;entryPerimeter=0;" edge="1" parent="1">
          <mxGeometry relative="1" as="geometry">
            <mxPoint x="155" y="348" as="sourcePoint" />
            <mxPoint x="281.25999999999976" y="348.5" as="targetPoint" />
          </mxGeometry>
        </mxCell>
        <mxCell id="wwS38SLD4BhZDNM-s97V-1" value=":Менеджер почтового сервера" style="shape=umlLifeline;perimeter=lifelinePerimeter;whiteSpace=wrap;html=1;container=1;collapsible=0;recursiveResize=0;outlineConnect=0;rounded=1;shadow=0;comic=0;labelBackgroundColor=none;strokeWidth=1;fontFamily=Verdana;fontSize=12;align=center;" vertex="1" parent="1">
          <mxGeometry x="960" y="80" width="100" height="1760" as="geometry" />
        </mxCell>
        <mxCell id="wwS38SLD4BhZDNM-s97V-60" value="" style="html=1;points=[];perimeter=orthogonalPerimeter;" vertex="1" parent="wwS38SLD4BhZDNM-s97V-1">
          <mxGeometry x="45" y="1471" width="10" height="80" as="geometry" />
        </mxCell>
        <mxCell id="wwS38SLD4BhZDNM-s97V-2" value="" style="shape=umlLifeline;participant=umlActor;perimeter=lifelinePerimeter;whiteSpace=wrap;html=1;container=1;collapsible=0;recursiveResize=0;verticalAlign=top;spacingTop=36;outlineConnect=0;" vertex="1" parent="1">
          <mxGeometry x="1140" y="80" width="20" height="1760" as="geometry" />
        </mxCell>
        <mxCell id="wwS38SLD4BhZDNM-s97V-63" value="" style="html=1;points=[];perimeter=orthogonalPerimeter;" vertex="1" parent="wwS38SLD4BhZDNM-s97V-2">
          <mxGeometry x="5" y="1488.5" width="10" height="45" as="geometry" />
        </mxCell>
        <mxCell id="wwS38SLD4BhZDNM-s97V-4" value=":Почтовый сервер" style="text;html=1;strokeColor=none;fillColor=none;align=center;verticalAlign=middle;whiteSpace=wrap;rounded=0;" vertex="1" parent="1">
          <mxGeometry x="1170" y="90" width="60" height="30" as="geometry" />
        </mxCell>
        <mxCell id="wwS38SLD4BhZDNM-s97V-5" value="" style="shape=umlLifeline;participant=umlActor;perimeter=lifelinePerimeter;whiteSpace=wrap;html=1;container=1;collapsible=0;recursiveResize=0;verticalAlign=top;spacingTop=36;outlineConnect=0;" vertex="1" parent="1">
          <mxGeometry x="140" y="80" width="20" height="1760" as="geometry" />
        </mxCell>
        <mxCell id="wwS38SLD4BhZDNM-s97V-6" value="" style="html=1;points=[];perimeter=orthogonalPerimeter;" vertex="1" parent="wwS38SLD4BhZDNM-s97V-5">
          <mxGeometry x="5" y="60" width="10" height="1700" as="geometry" />
        </mxCell>
        <mxCell id="wwS38SLD4BhZDNM-s97V-11" value="Нажать кнопку &lt;br&gt;&quot;Восстановление пароля&quot;" style="html=1;verticalAlign=bottom;endArrow=block;rounded=0;entryX=-0.374;entryY=0.081;entryDx=0;entryDy=0;entryPerimeter=0;" edge="1" parent="1">
          <mxGeometry relative="1" as="geometry">
            <mxPoint x="155" y="498.22" as="sourcePoint" />
            <mxPoint x="281.25999999999976" y="498.22" as="targetPoint" />
          </mxGeometry>
        </mxCell>
        <mxCell id="wwS38SLD4BhZDNM-s97V-12" value="Отобразить форму&amp;nbsp;&lt;br&gt;&quot;Отправка запроса на&lt;br&gt;&amp;nbsp;восстановление пароля&quot;" style="html=1;verticalAlign=bottom;endArrow=open;dashed=1;endSize=8;rounded=0;exitX=-0.374;exitY=0.12;exitDx=0;exitDy=0;exitPerimeter=0;" edge="1" parent="1">
          <mxGeometry relative="1" as="geometry">
            <mxPoint x="155" y="808.3999999999999" as="targetPoint" />
            <mxPoint x="281.25999999999976" y="808.3999999999999" as="sourcePoint" />
          </mxGeometry>
        </mxCell>
        <mxCell id="wwS38SLD4BhZDNM-s97V-8" value="Отобразить форму &lt;br&gt;&quot;Вход в систему&quot;" style="html=1;verticalAlign=bottom;endArrow=open;dashed=1;endSize=8;rounded=0;exitX=-0.113;exitY=0.058;exitDx=0;exitDy=0;exitPerimeter=0;" edge="1" parent="1">
          <mxGeometry relative="1" as="geometry">
            <mxPoint x="283.8699999999999" y="459.96000000000004" as="sourcePoint" />
            <mxPoint x="155" y="459.96000000000004" as="targetPoint" />
          </mxGeometry>
        </mxCell>
        <mxCell id="wwS38SLD4BhZDNM-s97V-14" value="Заполнение поля &lt;br&gt;с почтой" style="html=1;verticalAlign=bottom;endArrow=block;rounded=0;entryX=-0.2;entryY=0.155;entryDx=0;entryDy=0;entryPerimeter=0;" edge="1" parent="1">
          <mxGeometry relative="1" as="geometry">
            <mxPoint x="155" y="865.1000000000001" as="sourcePoint" />
            <mxPoint x="283" y="865.1000000000001" as="targetPoint" />
          </mxGeometry>
        </mxCell>
        <mxCell id="wwS38SLD4BhZDNM-s97V-33" value="Нажать кнопку&amp;nbsp;&lt;br&gt;&quot;Сбросить пароль&quot;" style="html=1;verticalAlign=bottom;endArrow=block;rounded=0;entryX=-0.287;entryY=0.361;entryDx=0;entryDy=0;entryPerimeter=0;" edge="1" parent="1">
          <mxGeometry x="0.0029" width="80" relative="1" as="geometry">
            <mxPoint x="155" y="933.8199999999999" as="sourcePoint" />
            <mxPoint x="282.1300000000001" y="933.8199999999999" as="targetPoint" />
            <mxPoint as="offset" />
          </mxGeometry>
        </mxCell>
        <mxCell id="wwS38SLD4BhZDNM-s97V-38" value="HTTP запрос API&amp;nbsp;&lt;div&gt;&quot;Отправить&amp;nbsp;&lt;div&gt;сообщение для&amp;nbsp;&lt;/div&gt;&lt;div&gt;восстановления&amp;nbsp;&lt;/div&gt;&lt;div&gt;пароля&quot;&lt;/div&gt;&lt;/div&gt;" style="html=1;verticalAlign=bottom;endArrow=block;entryX=0;entryY=0;rounded=0;entryDx=0;entryDy=5;entryPerimeter=0;" edge="1" parent="1" target="WZIY-89Z3sl6ZoVQuBjr-1">
          <mxGeometry relative="1" as="geometry">
            <mxPoint x="295" y="956" as="sourcePoint" />
          </mxGeometry>
        </mxCell>
        <mxCell id="wwS38SLD4BhZDNM-s97V-39" value="Результат запроса" style="html=1;verticalAlign=bottom;endArrow=open;dashed=1;endSize=8;exitX=0;exitY=0.95;rounded=0;" edge="1" parent="1" source="wwS38SLD4BhZDNM-s97V-37">
          <mxGeometry relative="1" as="geometry">
            <mxPoint x="295" y="1753.9999999999973" as="targetPoint" />
          </mxGeometry>
        </mxCell>
        <mxCell id="wwS38SLD4BhZDNM-s97V-45" value="Поиск пользователя по почте" style="html=1;verticalAlign=bottom;endArrow=block;entryX=0;entryY=0;rounded=0;" edge="1" parent="1" source="wwS38SLD4BhZDNM-s97V-37" target="wwS38SLD4BhZDNM-s97V-44">
          <mxGeometry relative="1" as="geometry">
            <mxPoint x="795" y="1431" as="sourcePoint" />
          </mxGeometry>
        </mxCell>
        <mxCell id="wwS38SLD4BhZDNM-s97V-46" value="Результат поиска" style="html=1;verticalAlign=bottom;endArrow=open;dashed=1;endSize=8;exitX=0;exitY=0.95;rounded=0;" edge="1" parent="1" source="wwS38SLD4BhZDNM-s97V-44" target="wwS38SLD4BhZDNM-s97V-37">
          <mxGeometry relative="1" as="geometry">
            <mxPoint x="795" y="1507" as="targetPoint" />
          </mxGeometry>
        </mxCell>
        <mxCell id="wwS38SLD4BhZDNM-s97V-51" value="Запрос к БД" style="html=1;verticalAlign=bottom;endArrow=block;entryX=0;entryY=0;rounded=0;" edge="1" parent="1" source="wwS38SLD4BhZDNM-s97V-44" target="wwS38SLD4BhZDNM-s97V-50">
          <mxGeometry relative="1" as="geometry">
            <mxPoint x="814" y="1431" as="sourcePoint" />
          </mxGeometry>
        </mxCell>
        <mxCell id="wwS38SLD4BhZDNM-s97V-52" value="Результат запроса" style="html=1;verticalAlign=bottom;endArrow=open;dashed=1;endSize=8;exitX=0;exitY=0.95;rounded=0;" edge="1" parent="1" source="wwS38SLD4BhZDNM-s97V-50" target="wwS38SLD4BhZDNM-s97V-44">
          <mxGeometry relative="1" as="geometry">
            <mxPoint x="814" y="1507" as="targetPoint" />
          </mxGeometry>
        </mxCell>
        <mxCell id="wwS38SLD4BhZDNM-s97V-55" value="Сохранить токен&lt;div&gt;восстановления&lt;/div&gt;" style="html=1;verticalAlign=bottom;endArrow=block;entryX=0;entryY=0;rounded=0;" edge="1" parent="1" source="wwS38SLD4BhZDNM-s97V-37" target="wwS38SLD4BhZDNM-s97V-54">
          <mxGeometry relative="1" as="geometry">
            <mxPoint x="795" y="1621" as="sourcePoint" />
          </mxGeometry>
        </mxCell>
        <mxCell id="wwS38SLD4BhZDNM-s97V-56" value="Результат" style="html=1;verticalAlign=bottom;endArrow=open;dashed=1;endSize=8;exitX=0;exitY=0.95;rounded=0;" edge="1" parent="1" source="wwS38SLD4BhZDNM-s97V-54" target="wwS38SLD4BhZDNM-s97V-37">
          <mxGeometry relative="1" as="geometry">
            <mxPoint x="795" y="1697" as="targetPoint" />
          </mxGeometry>
        </mxCell>
        <mxCell id="wwS38SLD4BhZDNM-s97V-58" value="Запрос к БД" style="html=1;verticalAlign=bottom;endArrow=block;entryX=0;entryY=0;rounded=0;" edge="1" parent="1" source="wwS38SLD4BhZDNM-s97V-54" target="wwS38SLD4BhZDNM-s97V-57">
          <mxGeometry relative="1" as="geometry">
            <mxPoint x="814" y="1621" as="sourcePoint" />
          </mxGeometry>
        </mxCell>
        <mxCell id="wwS38SLD4BhZDNM-s97V-59" value="Результат запроса" style="html=1;verticalAlign=bottom;endArrow=open;dashed=1;endSize=8;exitX=0;exitY=0.95;rounded=0;" edge="1" parent="1" source="wwS38SLD4BhZDNM-s97V-57" target="wwS38SLD4BhZDNM-s97V-54">
          <mxGeometry relative="1" as="geometry">
            <mxPoint x="814" y="1697" as="targetPoint" />
          </mxGeometry>
        </mxCell>
        <mxCell id="wwS38SLD4BhZDNM-s97V-61" value="Отправка письма с токеном востановления" style="html=1;verticalAlign=bottom;endArrow=block;entryX=0;entryY=0;rounded=0;" edge="1" parent="1" source="wwS38SLD4BhZDNM-s97V-37" target="wwS38SLD4BhZDNM-s97V-60">
          <mxGeometry relative="1" as="geometry">
            <mxPoint x="1075" y="1781" as="sourcePoint" />
          </mxGeometry>
        </mxCell>
        <mxCell id="wwS38SLD4BhZDNM-s97V-62" value="Результат отправки" style="html=1;verticalAlign=bottom;endArrow=open;dashed=1;endSize=8;exitX=0;exitY=0.95;rounded=0;" edge="1" parent="1" source="wwS38SLD4BhZDNM-s97V-60" target="wwS38SLD4BhZDNM-s97V-37">
          <mxGeometry relative="1" as="geometry">
            <mxPoint x="1075" y="1857" as="targetPoint" />
          </mxGeometry>
        </mxCell>
        <mxCell id="wwS38SLD4BhZDNM-s97V-64" value="Отправка письма" style="html=1;verticalAlign=bottom;endArrow=block;entryX=0;entryY=0;rounded=0;" edge="1" parent="1" source="wwS38SLD4BhZDNM-s97V-60" target="wwS38SLD4BhZDNM-s97V-63">
          <mxGeometry relative="1" as="geometry">
            <mxPoint x="1094" y="1781" as="sourcePoint" />
          </mxGeometry>
        </mxCell>
        <mxCell id="wwS38SLD4BhZDNM-s97V-65" value="Результат" style="html=1;verticalAlign=bottom;endArrow=open;dashed=1;endSize=8;exitX=0;exitY=0.95;rounded=0;" edge="1" parent="1" source="wwS38SLD4BhZDNM-s97V-63" target="wwS38SLD4BhZDNM-s97V-60">
          <mxGeometry relative="1" as="geometry">
            <mxPoint x="1094" y="1857" as="targetPoint" />
          </mxGeometry>
        </mxCell>
        <mxCell id="wwS38SLD4BhZDNM-s97V-69" value="Отобразить форму&amp;nbsp;&lt;br&gt;&quot;Предупреждение о &lt;br&gt;сообщении на почту&quot;" style="html=1;verticalAlign=bottom;endArrow=open;dashed=1;endSize=8;rounded=0;exitX=-0.2;exitY=0.854;exitDx=0;exitDy=0;exitPerimeter=0;" edge="1" parent="1">
          <mxGeometry relative="1" as="geometry">
            <mxPoint x="283.00000000000045" y="1824.48" as="sourcePoint" />
            <mxPoint x="155" y="1824.48" as="targetPoint" />
          </mxGeometry>
        </mxCell>
        <mxCell id="g-z1oCNefS3xPDmUXuDe-1" value=":Change-password-Handler" style="shape=umlLifeline;perimeter=lifelinePerimeter;whiteSpace=wrap;html=1;container=1;collapsible=0;recursiveResize=0;outlineConnect=0;rounded=1;shadow=0;comic=0;labelBackgroundColor=none;strokeWidth=1;fontFamily=Verdana;fontSize=12;align=center;" vertex="1" parent="1">
          <mxGeometry x="521" y="80" width="100" height="1760" as="geometry" />
        </mxCell>
        <mxCell id="wwS38SLD4BhZDNM-s97V-37" value="" style="html=1;points=[];perimeter=orthogonalPerimeter;" vertex="1" parent="g-z1oCNefS3xPDmUXuDe-1">
          <mxGeometry x="45" y="971" width="10" height="739" as="geometry" />
        </mxCell>
        <mxCell id="WZIY-89Z3sl6ZoVQuBjr-6" value="" style="html=1;points=[[0,0,0,0,5],[0,1,0,0,-5],[1,0,0,0,5],[1,1,0,0,-5]];perimeter=orthogonalPerimeter;outlineConnect=0;targetShapes=umlLifeline;portConstraint=eastwest;newEdgeStyle={&quot;curved&quot;:0,&quot;rounded&quot;:0};" vertex="1" parent="g-z1oCNefS3xPDmUXuDe-1">
          <mxGeometry x="50" y="1261" width="10" height="40" as="geometry" />
        </mxCell>
        <mxCell id="WZIY-89Z3sl6ZoVQuBjr-7" value="Сгенерировать токен восстановления" style="html=1;align=left;spacingLeft=2;endArrow=block;rounded=0;edgeStyle=orthogonalEdgeStyle;curved=0;rounded=0;" edge="1" parent="g-z1oCNefS3xPDmUXuDe-1" target="WZIY-89Z3sl6ZoVQuBjr-6">
          <mxGeometry relative="1" as="geometry">
            <mxPoint x="55" y="1241" as="sourcePoint" />
            <Array as="points">
              <mxPoint x="85" y="1271" />
            </Array>
          </mxGeometry>
        </mxCell>
        <mxCell id="WZIY-89Z3sl6ZoVQuBjr-8" value="" style="html=1;points=[[0,0,0,0,5],[0,1,0,0,-5],[1,0,0,0,5],[1,1,0,0,-5]];perimeter=orthogonalPerimeter;outlineConnect=0;targetShapes=umlLifeline;portConstraint=eastwest;newEdgeStyle={&quot;curved&quot;:0,&quot;rounded&quot;:0};" vertex="1" parent="g-z1oCNefS3xPDmUXuDe-1">
          <mxGeometry x="50" y="1031" width="10" height="40" as="geometry" />
        </mxCell>
        <mxCell id="WZIY-89Z3sl6ZoVQuBjr-9" value="Валидировать&lt;br style=&quot;border-color: var(--border-color);&quot;&gt;значение поля почты" style="html=1;align=left;spacingLeft=2;endArrow=block;rounded=0;edgeStyle=orthogonalEdgeStyle;curved=0;rounded=0;" edge="1" parent="g-z1oCNefS3xPDmUXuDe-1" target="WZIY-89Z3sl6ZoVQuBjr-8">
          <mxGeometry x="0.0118" relative="1" as="geometry">
            <mxPoint x="55" y="1011" as="sourcePoint" />
            <Array as="points">
              <mxPoint x="85" y="1041" />
            </Array>
            <mxPoint as="offset" />
          </mxGeometry>
        </mxCell>
        <mxCell id="g-z1oCNefS3xPDmUXuDe-6" value="Запрос API" style="html=1;verticalAlign=bottom;endArrow=block;entryX=-0.12;entryY=0.026;rounded=0;entryDx=0;entryDy=0;entryPerimeter=0;" edge="1" parent="1" source="WZIY-89Z3sl6ZoVQuBjr-1" target="wwS38SLD4BhZDNM-s97V-37">
          <mxGeometry relative="1" as="geometry">
            <mxPoint x="460" y="1071" as="sourcePoint" />
            <mxPoint x="591" y="1071" as="targetPoint" />
          </mxGeometry>
        </mxCell>
        <mxCell id="g-z1oCNefS3xPDmUXuDe-7" value="" style="group" vertex="1" connectable="0" parent="1">
          <mxGeometry x="360" y="180" width="242" height="170" as="geometry" />
        </mxCell>
        <mxCell id="g-z1oCNefS3xPDmUXuDe-8" value="" style="rounded=0;whiteSpace=wrap;html=1;" vertex="1" parent="g-z1oCNefS3xPDmUXuDe-7">
          <mxGeometry width="232.70157676348552" height="138.125" as="geometry" />
        </mxCell>
        <mxCell id="g-z1oCNefS3xPDmUXuDe-9" value="Стартотвая страница" style="text;html=1;strokeColor=none;fillColor=none;align=center;verticalAlign=middle;whiteSpace=wrap;rounded=0;" vertex="1" parent="g-z1oCNefS3xPDmUXuDe-7">
          <mxGeometry x="136.00406639004137" y="145.828125" width="90.37344398340251" height="15.9375" as="geometry" />
        </mxCell>
        <mxCell id="g-z1oCNefS3xPDmUXuDe-10" value="Вход в систему" style="rounded=1;whiteSpace=wrap;html=1;perimeterSpacing=0;" vertex="1" parent="g-z1oCNefS3xPDmUXuDe-7">
          <mxGeometry x="125.51867219917014" y="85" width="75.81327800829878" height="26.5625" as="geometry" />
        </mxCell>
        <mxCell id="g-z1oCNefS3xPDmUXuDe-11" value="Регистрация" style="rounded=1;whiteSpace=wrap;html=1;perimeterSpacing=0;" vertex="1" parent="g-z1oCNefS3xPDmUXuDe-7">
          <mxGeometry x="20.082987551867227" y="85" width="75.81327800829878" height="26.5625" as="geometry" />
        </mxCell>
        <mxCell id="WZIY-89Z3sl6ZoVQuBjr-11" value="" style="endArrow=block;dashed=1;endFill=0;endSize=12;html=1;rounded=0;" edge="1" parent="g-z1oCNefS3xPDmUXuDe-7" target="7baba1c4bc27f4b0-2">
          <mxGeometry width="160" relative="1" as="geometry">
            <mxPoint y="80" as="sourcePoint" />
            <mxPoint x="160" y="80" as="targetPoint" />
          </mxGeometry>
        </mxCell>
        <mxCell id="g-z1oCNefS3xPDmUXuDe-22" value="" style="group" connectable="0" vertex="1" parent="1">
          <mxGeometry x="360" y="360" width="340" height="230" as="geometry" />
        </mxCell>
        <mxCell id="g-z1oCNefS3xPDmUXuDe-14" value="v" style="rounded=0;whiteSpace=wrap;html=1;movable=1;resizable=1;rotatable=1;deletable=1;editable=1;locked=0;connectable=1;container=0;" vertex="1" parent="g-z1oCNefS3xPDmUXuDe-22">
          <mxGeometry width="340" height="199.33333333333334" as="geometry" />
        </mxCell>
        <mxCell id="g-z1oCNefS3xPDmUXuDe-15" value="Вход в систему" style="text;html=1;strokeColor=none;fillColor=none;align=center;verticalAlign=middle;whiteSpace=wrap;rounded=0;container=0;" vertex="1" parent="g-z1oCNefS3xPDmUXuDe-22">
          <mxGeometry x="80.4301075268817" y="207" width="170.35827956989243" height="23" as="geometry" />
        </mxCell>
        <mxCell id="g-z1oCNefS3xPDmUXuDe-16" value="" style="rounded=0;whiteSpace=wrap;html=1;container=0;" vertex="1" parent="g-z1oCNefS3xPDmUXuDe-22">
          <mxGeometry x="58.494623655913976" y="38.33333333333333" width="212.04301075268816" height="115" as="geometry" />
        </mxCell>
        <mxCell id="g-z1oCNefS3xPDmUXuDe-17" value="&lt;font style=&quot;font-size: 10px;&quot;&gt;Вход&lt;/font&gt;" style="rounded=1;whiteSpace=wrap;html=1;container=0;" vertex="1" parent="g-z1oCNefS3xPDmUXuDe-22">
          <mxGeometry x="97.24587005906405" y="122.66666666666667" width="38.38709677419354" height="23" as="geometry" />
        </mxCell>
        <mxCell id="g-z1oCNefS3xPDmUXuDe-18" value="&lt;font style=&quot;font-size: 10px;&quot;&gt;Восстановление пароля&lt;/font&gt;" style="rounded=1;whiteSpace=wrap;html=1;container=0;" vertex="1" parent="g-z1oCNefS3xPDmUXuDe-22">
          <mxGeometry x="153.24" y="122.67" width="86.76" height="23" as="geometry" />
        </mxCell>
        <mxCell id="g-z1oCNefS3xPDmUXuDe-19" value="&lt;font style=&quot;font-size: 10px;&quot;&gt;Регистрация&lt;/font&gt;" style="rounded=1;whiteSpace=wrap;html=1;container=0;" vertex="1" parent="g-z1oCNefS3xPDmUXuDe-22">
          <mxGeometry x="260" y="6.13" width="62.45" height="16.87" as="geometry" />
        </mxCell>
        <mxCell id="g-z1oCNefS3xPDmUXuDe-20" value="Поля для входа: почта, пароль" style="rounded=0;whiteSpace=wrap;html=1;" vertex="1" parent="g-z1oCNefS3xPDmUXuDe-22">
          <mxGeometry x="97.24731182795698" y="72.83333333333333" width="136.73118279569889" height="46" as="geometry" />
        </mxCell>
        <mxCell id="g-z1oCNefS3xPDmUXuDe-30" value="" style="group" connectable="0" vertex="1" parent="1">
          <mxGeometry x="360" y="610" width="320" height="216" as="geometry" />
        </mxCell>
        <mxCell id="g-z1oCNefS3xPDmUXuDe-25" value="v" style="rounded=0;whiteSpace=wrap;html=1;" vertex="1" parent="g-z1oCNefS3xPDmUXuDe-30">
          <mxGeometry width="320" height="189.7297297297297" as="geometry" />
        </mxCell>
        <mxCell id="g-z1oCNefS3xPDmUXuDe-26" value="Отправка запроса на восстановление пароля" style="text;html=1;strokeColor=none;fillColor=none;align=center;verticalAlign=middle;whiteSpace=wrap;rounded=0;" vertex="1" parent="g-z1oCNefS3xPDmUXuDe-30">
          <mxGeometry x="89.46236559139784" y="194.1081081081081" width="123.87096774193547" height="21.89189189189189" as="geometry" />
        </mxCell>
        <mxCell id="g-z1oCNefS3xPDmUXuDe-27" value="Логин для сброса пароля" style="rounded=0;whiteSpace=wrap;html=1;" vertex="1" parent="g-z1oCNefS3xPDmUXuDe-30">
          <mxGeometry x="80.86021505376344" y="51.08108108108108" width="151.39784946236557" height="94.86486486486486" as="geometry" />
        </mxCell>
        <mxCell id="g-z1oCNefS3xPDmUXuDe-28" value="&lt;font style=&quot;font-size: 10px;&quot;&gt;Вход в систему&lt;/font&gt;" style="rounded=1;whiteSpace=wrap;html=1;" vertex="1" parent="g-z1oCNefS3xPDmUXuDe-30">
          <mxGeometry x="261.505376344086" y="5.837837837837838" width="53.677419354838705" height="15.324324324324325" as="geometry" />
        </mxCell>
        <mxCell id="g-z1oCNefS3xPDmUXuDe-29" value="&lt;font style=&quot;font-size: 10px;&quot;&gt;Сбросить пароль&lt;/font&gt;" style="rounded=1;whiteSpace=wrap;html=1;" vertex="1" parent="g-z1oCNefS3xPDmUXuDe-30">
          <mxGeometry x="129.03225806451613" y="116.75675675675676" width="55.053763440860216" height="21.89189189189189" as="geometry" />
        </mxCell>
        <mxCell id="g-z1oCNefS3xPDmUXuDe-31" value="" style="endArrow=block;dashed=1;endFill=0;endSize=12;html=1;rounded=0;" edge="1" parent="1">
          <mxGeometry width="160" relative="1" as="geometry">
            <mxPoint x="360" y="700" as="sourcePoint" />
            <mxPoint x="290" y="700" as="targetPoint" />
          </mxGeometry>
        </mxCell>
      </root>
    </mxGraphModel>
  </diagram>
</mxfile>
